# xmcd
#
# Track frame offsets:
#	150
#	17261
#	30668
#	45295
#	61279
#	73161
#	87153
#	101617
#	117424
#	135494
#
# Disc length: 2042 seconds
#
# Revision: 1
# Processed by: cddbd v1.5.2PL0 Copyright (c) Steve Scherf et al.
# Submitted via: audiograbber 1.83.01
#
DISCID=7807f80a
DTITLE=Heather McCready - Give It A Day
DYEAR=1900
DGENRE=Country
TTITLE0=Sunshiny Day 
TTITLE1=You Came to Me
TTITLE2=Give It A Day 
TTITLE3=Freefalling
TTITLE4=Clarity 
TTITLE5=Life
TTITLE6=How Long
TTITLE7=Hold Me Tender
TTITLE8=Listen Awhile
TTITLE9=Maybe
EXTD=
EXTT0=
EXTT1=
EXTT2=
EXTT3=
EXTT4=
EXTT5=
EXTT6=
EXTT7=
EXTT8=
EXTT9=
PLAYORDER=
